<svg version="1.1" xmlns="http://www.w3.org/2000/svg" width="1000px" height="1000px" viewBox="0 0 1080 1080"  preserveAspectRatio="xMinYMin meet"><rect width="100%" height="100%" fill="#ffffff" cx="0" cy="0"/><path d="M40,40l40,0 0,40 -40,0 0,-40z M80,40l40,0 0,40 -40,0 0,-40z M120,40l40,0 0,40 -40,0 0,-40z M160,40l40,0 0,40 -40,0 0,-40z M200,40l40,0 0,40 -40,0 0,-40z M240,40l40,0 0,40 -40,0 0,-40z M280,40l40,0 0,40 -40,0 0,-40z M360,40l40,0 0,40 -40,0 0,-40z M400,40l40,0 0,40 -40,0 0,-40z M560,40l40,0 0,40 -40,0 0,-40z M600,40l40,0 0,40 -40,0 0,-40z M760,40l40,0 0,40 -40,0 0,-40z M800,40l40,0 0,40 -40,0 0,-40z M840,40l40,0 0,40 -40,0 0,-40z M880,40l40,0 0,40 -40,0 0,-40z M920,40l40,0 0,40 -40,0 0,-40z M960,40l40,0 0,40 -40,0 0,-40z M1000,40l40,0 0,40 -40,0 0,-40z M40,80l40,0 0,40 -40,0 0,-40z M280,80l40,0 0,40 -40,0 0,-40z M360,80l40,0 0,40 -40,0 0,-40z M520,80l40,0 0,40 -40,0 0,-40z M760,80l40,0 0,40 -40,0 0,-40z M1000,80l40,0 0,40 -40,0 0,-40z M40,120l40,0 0,40 -40,0 0,-40z M120,120l40,0 0,40 -40,0 0,-40z M160,120l40,0 0,40 -40,0 0,-40z M200,120l40,0 0,40 -40,0 0,-40z M280,120l40,0 0,40 -40,0 0,-40z M400,120l40,0 0,40 -40,0 0,-40z M440,120l40,0 0,40 -40,0 0,-40z M480,120l40,0 0,40 -40,0 0,-40z M520,120l40,0 0,40 -40,0 0,-40z M560,120l40,0 0,40 -40,0 0,-40z M640,120l40,0 0,40 -40,0 0,-40z M680,120l40,0 0,40 -40,0 0,-40z M760,120l40,0 0,40 -40,0 0,-40z M840,120l40,0 0,40 -40,0 0,-40z M880,120l40,0 0,40 -40,0 0,-40z M920,120l40,0 0,40 -40,0 0,-40z M1000,120l40,0 0,40 -40,0 0,-40z M40,160l40,0 0,40 -40,0 0,-40z M120,160l40,0 0,40 -40,0 0,-40z M160,160l40,0 0,40 -40,0 0,-40z M200,160l40,0 0,40 -40,0 0,-40z M280,160l40,0 0,40 -40,0 0,-40z M400,160l40,0 0,40 -40,0 0,-40z M440,160l40,0 0,40 -40,0 0,-40z M560,160l40,0 0,40 -40,0 0,-40z M600,160l40,0 0,40 -40,0 0,-40z M640,160l40,0 0,40 -40,0 0,-40z M760,160l40,0 0,40 -40,0 0,-40z M840,160l40,0 0,40 -40,0 0,-40z M880,160l40,0 0,40 -40,0 0,-40z M920,160l40,0 0,40 -40,0 0,-40z M1000,160l40,0 0,40 -40,0 0,-40z M40,200l40,0 0,40 -40,0 0,-40z M120,200l40,0 0,40 -40,0 0,-40z M160,200l40,0 0,40 -40,0 0,-40z M200,200l40,0 0,40 -40,0 0,-40z M280,200l40,0 0,40 -40,0 0,-40z M360,200l40,0 0,40 -40,0 0,-40z M400,200l40,0 0,40 -40,0 0,-40z M560,200l40,0 0,40 -40,0 0,-40z M600,200l40,0 0,40 -40,0 0,-40z M760,200l40,0 0,40 -40,0 0,-40z M840,200l40,0 0,40 -40,0 0,-40z M880,200l40,0 0,40 -40,0 0,-40z M920,200l40,0 0,40 -40,0 0,-40z M1000,200l40,0 0,40 -40,0 0,-40z M40,240l40,0 0,40 -40,0 0,-40z M280,240l40,0 0,40 -40,0 0,-40z M360,240l40,0 0,40 -40,0 0,-40z M560,240l40,0 0,40 -40,0 0,-40z M680,240l40,0 0,40 -40,0 0,-40z M760,240l40,0 0,40 -40,0 0,-40z M1000,240l40,0 0,40 -40,0 0,-40z M40,280l40,0 0,40 -40,0 0,-40z M80,280l40,0 0,40 -40,0 0,-40z M120,280l40,0 0,40 -40,0 0,-40z M160,280l40,0 0,40 -40,0 0,-40z M200,280l40,0 0,40 -40,0 0,-40z M240,280l40,0 0,40 -40,0 0,-40z M280,280l40,0 0,40 -40,0 0,-40z M360,280l40,0 0,40 -40,0 0,-40z M440,280l40,0 0,40 -40,0 0,-40z M520,280l40,0 0,40 -40,0 0,-40z M600,280l40,0 0,40 -40,0 0,-40z M680,280l40,0 0,40 -40,0 0,-40z M760,280l40,0 0,40 -40,0 0,-40z M800,280l40,0 0,40 -40,0 0,-40z M840,280l40,0 0,40 -40,0 0,-40z M880,280l40,0 0,40 -40,0 0,-40z M920,280l40,0 0,40 -40,0 0,-40z M960,280l40,0 0,40 -40,0 0,-40z M1000,280l40,0 0,40 -40,0 0,-40z M360,320l40,0 0,40 -40,0 0,-40z M480,320l40,0 0,40 -40,0 0,-40z M520,320l40,0 0,40 -40,0 0,-40z M640,320l40,0 0,40 -40,0 0,-40z M40,360l40,0 0,40 -40,0 0,-40z M80,360l40,0 0,40 -40,0 0,-40z M120,360l40,0 0,40 -40,0 0,-40z M240,360l40,0 0,40 -40,0 0,-40z M280,360l40,0 0,40 -40,0 0,-40z M360,360l40,0 0,40 -40,0 0,-40z M440,360l40,0 0,40 -40,0 0,-40z M520,360l40,0 0,40 -40,0 0,-40z M600,360l40,0 0,40 -40,0 0,-40z M640,360l40,0 0,40 -40,0 0,-40z M720,360l40,0 0,40 -40,0 0,-40z M760,360l40,0 0,40 -40,0 0,-40z M800,360l40,0 0,40 -40,0 0,-40z M840,360l40,0 0,40 -40,0 0,-40z M960,360l40,0 0,40 -40,0 0,-40z M1000,360l40,0 0,40 -40,0 0,-40z M40,400l40,0 0,40 -40,0 0,-40z M80,400l40,0 0,40 -40,0 0,-40z M160,400l40,0 0,40 -40,0 0,-40z M200,400l40,0 0,40 -40,0 0,-40z M400,400l40,0 0,40 -40,0 0,-40z M480,400l40,0 0,40 -40,0 0,-40z M560,400l40,0 0,40 -40,0 0,-40z M640,400l40,0 0,40 -40,0 0,-40z M680,400l40,0 0,40 -40,0 0,-40z M760,400l40,0 0,40 -40,0 0,-40z M800,400l40,0 0,40 -40,0 0,-40z M880,400l40,0 0,40 -40,0 0,-40z M960,400l40,0 0,40 -40,0 0,-40z M1000,400l40,0 0,40 -40,0 0,-40z M40,440l40,0 0,40 -40,0 0,-40z M80,440l40,0 0,40 -40,0 0,-40z M200,440l40,0 0,40 -40,0 0,-40z M240,440l40,0 0,40 -40,0 0,-40z M280,440l40,0 0,40 -40,0 0,-40z M360,440l40,0 0,40 -40,0 0,-40z M480,440l40,0 0,40 -40,0 0,-40z M640,440l40,0 0,40 -40,0 0,-40z M720,440l40,0 0,40 -40,0 0,-40z M880,440l40,0 0,40 -40,0 0,-40z M920,440l40,0 0,40 -40,0 0,-40z M1000,440l40,0 0,40 -40,0 0,-40z M40,480l40,0 0,40 -40,0 0,-40z M120,480l40,0 0,40 -40,0 0,-40z M160,480l40,0 0,40 -40,0 0,-40z M200,480l40,0 0,40 -40,0 0,-40z M320,480l40,0 0,40 -40,0 0,-40z M360,480l40,0 0,40 -40,0 0,-40z M440,480l40,0 0,40 -40,0 0,-40z M840,480l40,0 0,40 -40,0 0,-40z M880,480l40,0 0,40 -40,0 0,-40z M40,520l40,0 0,40 -40,0 0,-40z M80,520l40,0 0,40 -40,0 0,-40z M200,520l40,0 0,40 -40,0 0,-40z M280,520l40,0 0,40 -40,0 0,-40z M360,520l40,0 0,40 -40,0 0,-40z M400,520l40,0 0,40 -40,0 0,-40z M440,520l40,0 0,40 -40,0 0,-40z M680,520l40,0 0,40 -40,0 0,-40z M760,520l40,0 0,40 -40,0 0,-40z M800,520l40,0 0,40 -40,0 0,-40z M1000,520l40,0 0,40 -40,0 0,-40z M120,560l40,0 0,40 -40,0 0,-40z M160,560l40,0 0,40 -40,0 0,-40z M200,560l40,0 0,40 -40,0 0,-40z M240,560l40,0 0,40 -40,0 0,-40z M320,560l40,0 0,40 -40,0 0,-40z M360,560l40,0 0,40 -40,0 0,-40z M480,560l40,0 0,40 -40,0 0,-40z M520,560l40,0 0,40 -40,0 0,-40z M560,560l40,0 0,40 -40,0 0,-40z M640,560l40,0 0,40 -40,0 0,-40z M680,560l40,0 0,40 -40,0 0,-40z M760,560l40,0 0,40 -40,0 0,-40z M800,560l40,0 0,40 -40,0 0,-40z M960,560l40,0 0,40 -40,0 0,-40z M1000,560l40,0 0,40 -40,0 0,-40z M40,600l40,0 0,40 -40,0 0,-40z M80,600l40,0 0,40 -40,0 0,-40z M280,600l40,0 0,40 -40,0 0,-40z M320,600l40,0 0,40 -40,0 0,-40z M400,600l40,0 0,40 -40,0 0,-40z M480,600l40,0 0,40 -40,0 0,-40z M520,600l40,0 0,40 -40,0 0,-40z M640,600l40,0 0,40 -40,0 0,-40z M680,600l40,0 0,40 -40,0 0,-40z M720,600l40,0 0,40 -40,0 0,-40z M760,600l40,0 0,40 -40,0 0,-40z M880,600l40,0 0,40 -40,0 0,-40z M920,600l40,0 0,40 -40,0 0,-40z M1000,600l40,0 0,40 -40,0 0,-40z M120,640l40,0 0,40 -40,0 0,-40z M160,640l40,0 0,40 -40,0 0,-40z M200,640l40,0 0,40 -40,0 0,-40z M240,640l40,0 0,40 -40,0 0,-40z M400,640l40,0 0,40 -40,0 0,-40z M440,640l40,0 0,40 -40,0 0,-40z M480,640l40,0 0,40 -40,0 0,-40z M520,640l40,0 0,40 -40,0 0,-40z M720,640l40,0 0,40 -40,0 0,-40z M800,640l40,0 0,40 -40,0 0,-40z M840,640l40,0 0,40 -40,0 0,-40z M880,640l40,0 0,40 -40,0 0,-40z M40,680l40,0 0,40 -40,0 0,-40z M80,680l40,0 0,40 -40,0 0,-40z M160,680l40,0 0,40 -40,0 0,-40z M240,680l40,0 0,40 -40,0 0,-40z M280,680l40,0 0,40 -40,0 0,-40z M400,680l40,0 0,40 -40,0 0,-40z M480,680l40,0 0,40 -40,0 0,-40z M520,680l40,0 0,40 -40,0 0,-40z M680,680l40,0 0,40 -40,0 0,-40z M720,680l40,0 0,40 -40,0 0,-40z M760,680l40,0 0,40 -40,0 0,-40z M800,680l40,0 0,40 -40,0 0,-40z M840,680l40,0 0,40 -40,0 0,-40z M960,680l40,0 0,40 -40,0 0,-40z M360,720l40,0 0,40 -40,0 0,-40z M400,720l40,0 0,40 -40,0 0,-40z M480,720l40,0 0,40 -40,0 0,-40z M520,720l40,0 0,40 -40,0 0,-40z M680,720l40,0 0,40 -40,0 0,-40z M840,720l40,0 0,40 -40,0 0,-40z M1000,720l40,0 0,40 -40,0 0,-40z M40,760l40,0 0,40 -40,0 0,-40z M80,760l40,0 0,40 -40,0 0,-40z M120,760l40,0 0,40 -40,0 0,-40z M160,760l40,0 0,40 -40,0 0,-40z M200,760l40,0 0,40 -40,0 0,-40z M240,760l40,0 0,40 -40,0 0,-40z M280,760l40,0 0,40 -40,0 0,-40z M440,760l40,0 0,40 -40,0 0,-40z M480,760l40,0 0,40 -40,0 0,-40z M560,760l40,0 0,40 -40,0 0,-40z M680,760l40,0 0,40 -40,0 0,-40z M760,760l40,0 0,40 -40,0 0,-40z M840,760l40,0 0,40 -40,0 0,-40z M1000,760l40,0 0,40 -40,0 0,-40z M40,800l40,0 0,40 -40,0 0,-40z M280,800l40,0 0,40 -40,0 0,-40z M360,800l40,0 0,40 -40,0 0,-40z M440,800l40,0 0,40 -40,0 0,-40z M600,800l40,0 0,40 -40,0 0,-40z M640,800l40,0 0,40 -40,0 0,-40z M680,800l40,0 0,40 -40,0 0,-40z M840,800l40,0 0,40 -40,0 0,-40z M40,840l40,0 0,40 -40,0 0,-40z M120,840l40,0 0,40 -40,0 0,-40z M160,840l40,0 0,40 -40,0 0,-40z M200,840l40,0 0,40 -40,0 0,-40z M280,840l40,0 0,40 -40,0 0,-40z M400,840l40,0 0,40 -40,0 0,-40z M440,840l40,0 0,40 -40,0 0,-40z M520,840l40,0 0,40 -40,0 0,-40z M640,840l40,0 0,40 -40,0 0,-40z M680,840l40,0 0,40 -40,0 0,-40z M720,840l40,0 0,40 -40,0 0,-40z M760,840l40,0 0,40 -40,0 0,-40z M800,840l40,0 0,40 -40,0 0,-40z M840,840l40,0 0,40 -40,0 0,-40z M960,840l40,0 0,40 -40,0 0,-40z M1000,840l40,0 0,40 -40,0 0,-40z M40,880l40,0 0,40 -40,0 0,-40z M120,880l40,0 0,40 -40,0 0,-40z M160,880l40,0 0,40 -40,0 0,-40z M200,880l40,0 0,40 -40,0 0,-40z M280,880l40,0 0,40 -40,0 0,-40z M480,880l40,0 0,40 -40,0 0,-40z M520,880l40,0 0,40 -40,0 0,-40z M600,880l40,0 0,40 -40,0 0,-40z M720,880l40,0 0,40 -40,0 0,-40z M840,880l40,0 0,40 -40,0 0,-40z M920,880l40,0 0,40 -40,0 0,-40z M1000,880l40,0 0,40 -40,0 0,-40z M40,920l40,0 0,40 -40,0 0,-40z M120,920l40,0 0,40 -40,0 0,-40z M160,920l40,0 0,40 -40,0 0,-40z M200,920l40,0 0,40 -40,0 0,-40z M280,920l40,0 0,40 -40,0 0,-40z M360,920l40,0 0,40 -40,0 0,-40z M480,920l40,0 0,40 -40,0 0,-40z M520,920l40,0 0,40 -40,0 0,-40z M560,920l40,0 0,40 -40,0 0,-40z M680,920l40,0 0,40 -40,0 0,-40z M720,920l40,0 0,40 -40,0 0,-40z M800,920l40,0 0,40 -40,0 0,-40z M840,920l40,0 0,40 -40,0 0,-40z M880,920l40,0 0,40 -40,0 0,-40z M960,920l40,0 0,40 -40,0 0,-40z M1000,920l40,0 0,40 -40,0 0,-40z M40,960l40,0 0,40 -40,0 0,-40z M280,960l40,0 0,40 -40,0 0,-40z M360,960l40,0 0,40 -40,0 0,-40z M400,960l40,0 0,40 -40,0 0,-40z M520,960l40,0 0,40 -40,0 0,-40z M680,960l40,0 0,40 -40,0 0,-40z M800,960l40,0 0,40 -40,0 0,-40z M840,960l40,0 0,40 -40,0 0,-40z M40,1000l40,0 0,40 -40,0 0,-40z M80,1000l40,0 0,40 -40,0 0,-40z M120,1000l40,0 0,40 -40,0 0,-40z M160,1000l40,0 0,40 -40,0 0,-40z M200,1000l40,0 0,40 -40,0 0,-40z M240,1000l40,0 0,40 -40,0 0,-40z M280,1000l40,0 0,40 -40,0 0,-40z M360,1000l40,0 0,40 -40,0 0,-40z M400,1000l40,0 0,40 -40,0 0,-40z M520,1000l40,0 0,40 -40,0 0,-40z M680,1000l40,0 0,40 -40,0 0,-40z M760,1000l40,0 0,40 -40,0 0,-40z M880,1000l40,0 0,40 -40,0 0,-40z M1000,1000l40,0 0,40 -40,0 0,-40z " stroke="transparent" fill="#000000"/></svg>